<svg width="578" height="230" viewBox="0 0 578 230" fill="none" xmlns="http://www.w3.org/2000/svg">
<g clip-path="url(#clip0_450_2)">
<mask id="path-1-outside-1_450_2" maskUnits="userSpaceOnUse" x="24" y="26" width="504" height="177" fill="black">
<rect fill="white" x="24" y="26" width="504" height="177"/>
<path d="M63.0546 134.224C63.2698 134.334 63.4179 134.375 63.499 134.349L85.0411 127.332C85.2034 127.279 85.3392 127.145 85.4486 126.93C85.5581 126.715 85.5052 126.553 85.2901 126.443C83.5801 123.949 81.5004 122.248 79.051 121.34C76.6016 120.433 74.0786 120.402 71.4822 121.248C68.6424 122.173 66.4594 123.737 64.933 125.939C63.4614 128.034 62.7419 130.646 62.7744 133.777C62.7461 133.966 62.8395 134.115 63.0546 134.224ZM107.09 170.228C102.856 173.761 97.3723 176.624 90.6378 178.818C82.8486 181.355 75.329 181.965 68.079 180.647C60.9365 179.383 54.7109 176.251 49.4021 171.249C44.1198 166.328 40.1969 159.933 37.6333 152.062C35.0962 144.273 34.5131 136.835 35.8841 129.747C37.2003 122.767 40.3461 116.582 45.3215 111.192C50.161 105.936 56.6376 101.986 64.7514 99.3436C74.569 96.1458 83.7172 96.1277 92.1959 99.2892C100.593 102.477 107.348 109.162 112.459 119.344C113.656 121.915 114.029 124.576 113.578 127.325C113.156 129.886 111.952 132.253 109.967 134.425C108.064 136.571 105.732 138.093 102.974 138.991L68.7743 150.131C68.6931 150.157 68.5978 150.278 68.4884 150.493C68.379 150.708 68.4045 150.924 68.5649 151.141C70.4107 153.502 72.6395 155.109 75.2512 155.964C77.8365 156.737 80.5084 156.674 83.2671 155.776C86.8372 154.613 90.0268 151.869 92.836 147.544C94.9641 144.158 97.7321 141.91 101.14 140.8C103.899 139.902 106.543 139.893 109.074 140.774C111.361 141.734 113.121 142.866 114.353 144.17C115.88 145.826 116.921 147.507 117.476 149.21C118.374 151.969 118.222 154.532 117.018 156.898C114.77 162.118 111.46 166.561 107.09 170.228ZM175.036 127.343C177.198 123.773 177.9 119.758 177.142 115.299C176.383 110.841 174.309 107.298 170.919 104.672C167.53 102.046 163.816 101.077 159.778 101.764C157.675 102.122 155.692 102.935 153.831 104.204C150.639 106.305 148.649 108.851 147.859 111.842C147.125 114.65 147.001 117.484 147.488 120.344C148.275 124.971 150.265 128.528 153.458 131.014C156.749 133.57 160.582 134.476 164.957 133.732C169.584 132.945 172.943 130.815 175.036 127.343ZM172.136 191.198C164.733 192.457 157.732 192.263 151.133 190.616C144.534 188.969 138.968 185.761 134.435 180.992C132.971 179.51 132.088 177.886 131.788 176.119C131.444 174.1 131.662 172.072 132.441 170.036C133.219 167.999 134.518 166.22 136.337 164.699C138.001 163.29 139.885 162.407 141.988 162.049C145.774 161.405 149.509 162.241 153.192 164.558C157.985 167.291 162.695 168.265 167.322 167.477C171.528 166.762 174.869 165.285 177.344 163.046C179.82 160.807 181.108 157.948 181.209 154.468C181.18 154.3 181.21 152.694 181.298 149.649C181.283 149.565 181.178 149.453 180.981 149.313C180.882 149.244 180.798 149.258 180.728 149.356C178.548 151.805 175.827 153.869 172.563 155.549C169.454 157.117 166.049 158.216 162.348 158.845C155.113 160.076 148.51 159.425 142.539 156.892C136.302 154.317 131.112 150.267 126.969 144.739C122.84 139.296 120.103 132.62 118.758 124.713C117.513 117.394 117.825 110.329 119.696 103.519C121.526 96.9753 124.945 91.3734 129.951 86.713C134.804 82.1654 141.1 79.2333 148.839 77.9166C153.214 77.1724 157.605 77.2909 162.014 78.2722C166.155 79.2122 169.872 80.9603 173.163 83.5165C173.262 83.5863 173.437 83.5998 173.689 83.5568C173.858 83.5282 173.962 83.3806 174.003 83.1139C174.458 80.6994 175.651 78.549 177.58 76.6627C179.44 74.8747 181.632 73.7661 184.156 73.3368C187.605 72.75 190.757 73.4689 193.611 75.4935C196.466 77.5181 198.187 80.2549 198.773 83.704L208.691 142.002C210.28 151.34 209.795 159.429 207.237 166.27C204.664 173.027 200.319 178.526 194.203 182.77C188.157 186.914 180.801 189.724 172.136 191.198ZM266.461 118.976C269.056 115.706 270.258 111.812 270.067 107.293C269.876 102.774 268.264 98.999 265.232 95.967C262.2 92.935 258.638 91.5055 254.546 91.6785C252.414 91.7686 250.345 92.3258 248.339 93.3501C244.908 95.0325 242.613 97.3075 241.453 100.175C240.371 102.868 239.891 105.665 240.014 108.563C240.212 113.252 241.738 117.031 244.593 119.9C247.536 122.85 251.224 124.232 255.657 124.044C260.347 123.846 263.948 122.157 266.461 118.976ZM255.543 181.957C248.041 182.274 241.12 181.2 234.781 178.735C228.442 176.27 223.324 172.386 219.427 167.085C218.161 165.43 217.491 163.708 217.415 161.917C217.328 159.871 217.8 157.887 218.829 155.964C219.858 154.042 221.37 152.441 223.366 151.16C225.195 149.973 227.175 149.334 229.306 149.244C233.143 149.082 236.742 150.381 240.105 153.143C244.515 156.459 249.065 158.017 253.754 157.819C258.017 157.639 261.517 156.594 264.255 154.685C266.993 152.775 268.631 150.101 269.169 146.662C269.162 146.491 269.393 144.902 269.864 141.892C269.86 141.807 269.77 141.683 269.592 141.519C269.503 141.438 269.418 141.441 269.336 141.53C266.865 143.685 263.905 145.39 260.456 146.646C257.175 147.81 253.658 148.471 249.907 148.629C242.575 148.939 236.106 147.462 230.502 144.197C224.639 140.857 220 136.185 216.586 130.18C213.175 124.26 211.301 117.293 210.962 109.279C210.648 101.862 211.849 94.8926 214.562 88.3722C217.201 82.1111 221.298 76.9842 226.852 72.9914C232.238 69.0911 238.854 66.9752 246.697 66.6436C251.131 66.4562 255.472 67.1268 259.722 68.6553C263.712 70.1094 267.179 72.3117 270.122 75.262C270.211 75.3436 270.383 75.3791 270.639 75.3682C270.81 75.361 270.932 75.2277 271.006 74.9684C271.762 72.6304 273.215 70.6472 275.367 69.0189C277.437 67.4794 279.751 66.6556 282.309 66.5475C285.804 66.3997 288.841 67.5098 291.418 69.8778C293.995 72.2457 295.357 75.1775 295.505 78.673L298.002 137.756C298.402 147.22 296.903 155.184 293.503 161.648C290.1 168.026 285.098 172.935 278.496 176.375C271.976 179.725 264.325 181.586 255.543 181.957ZM368.223 148.752C365.721 145.81 364.629 142.383 364.946 138.47L371.746 54.5211C372.076 50.4384 373.713 47.1465 376.655 44.6452C379.689 42.0657 383.205 40.9379 387.203 41.2617C391.115 41.5786 394.361 43.2541 396.941 46.2883C399.442 49.2305 400.527 52.7429 400.197 56.8255L393.397 140.775C393.08 144.687 391.45 147.894 388.508 150.395C385.474 152.975 382.001 154.106 378.088 153.789C374.091 153.465 370.802 151.786 368.223 148.752ZM324.121 149.418C320.123 149.094 316.835 147.415 314.255 144.381C311.676 141.347 310.541 137.916 310.851 134.089L314.127 93.645C314.175 93.0496 313.948 92.6887 313.444 92.5623C310.332 91.8821 307.887 90.3571 306.11 87.9872C304.254 85.5254 303.451 82.7635 303.699 79.7015C303.96 76.4695 305.205 73.7879 307.432 71.6567C309.568 69.6038 312.226 68.4921 315.408 68.3217C315.925 68.278 316.204 68.001 316.245 67.4906C316.822 62.4862 317.896 58.207 319.468 54.6529C321.139 50.9357 323.371 47.692 326.164 44.9217C328.964 42.0664 332.392 39.9042 336.449 38.4349C340.925 37.0852 345.459 36.5963 350.052 36.9683C354.39 37.3197 358.737 38.6135 363.093 40.8499C365.406 41.8933 367.15 43.6184 368.324 46.0251C369.506 48.3468 369.983 50.911 369.756 53.7178C369.667 54.8235 369.449 55.9189 369.105 57.0039C368.231 59.3304 366.857 60.9741 364.981 61.9351C363.02 62.8893 360.934 63.2768 358.723 63.0977C357.787 63.0219 356.862 62.8185 355.947 62.4876L353.288 62.0154C350.822 61.8156 348.885 62.4721 347.478 63.9848C346.171 65.3342 345.286 67.2745 344.824 69.8054C344.81 69.9756 344.881 70.1526 345.038 70.3364C345.194 70.5203 345.357 70.6192 345.527 70.6329L350.503 71.036C353.82 71.3047 356.573 72.7262 358.762 75.3006C360.95 77.8751 361.903 80.9059 361.621 84.3932C361.352 87.7103 359.931 90.4632 357.356 92.6518C354.782 94.8405 351.836 95.8004 348.519 95.5317L343.543 95.1287C343.288 95.1081 343.111 95.1793 343.012 95.3425C342.815 95.669 342.712 95.8747 342.705 95.9598L339.43 136.403C339.12 140.231 337.447 143.434 334.413 146.014C331.379 148.593 327.948 149.728 324.121 149.418ZM430.946 71.3989C426.495 70.5959 423.042 68.5857 420.588 65.3681C418.134 62.1505 417.293 58.4003 418.065 54.1175C418.853 49.7506 420.959 46.4887 424.383 44.3317C427.906 42.1059 431.851 41.3869 436.218 42.1747C440.501 42.9474 443.904 44.9921 446.427 48.3088C448.951 51.6255 449.826 55.4252 449.053 59.7081C448.28 63.991 446.182 67.2109 442.758 69.3679C439.334 71.5249 435.397 72.2019 430.946 71.3989ZM405.847 152.845C403.644 149.673 402.906 146.071 403.634 142.04L412.815 91.1497C413.527 87.2027 415.469 84.128 418.641 81.9255C421.913 79.6543 425.522 78.8747 429.469 79.5867C433.416 80.2988 436.525 82.2905 438.796 85.5617C440.998 88.7338 441.744 92.2933 441.031 96.2403L431.85 147.131C431.123 151.162 429.173 154.278 426.001 156.481C422.73 158.752 419.121 159.532 415.174 158.82C411.227 158.108 408.118 156.116 405.847 152.845ZM470.915 149.586L456.409 162.336C454.934 163.525 453.144 164.406 451.04 164.98C449.229 165.457 447.253 165.403 445.113 164.817C442.726 164.164 440.654 162.844 438.898 160.859C436.236 157.654 435.492 153.911 436.663 149.631C437.497 146.586 438.82 144.338 440.633 142.888L460.093 126.584C460.452 126.24 460.565 125.828 460.431 125.349L452.079 101.564C451.266 99.0405 451.186 96.5856 451.839 94.1988C452.357 92.3058 453.422 90.5181 455.033 88.8357C456.411 87.3552 458.205 86.2979 460.413 85.6639C462.891 85.0152 465.282 85.0063 467.587 85.6372C469.974 86.2907 471.967 87.4115 473.567 88.9997C475.392 90.7379 476.561 92.6063 477.076 94.6051L482.235 111.147C482.354 111.356 482.496 111.484 482.661 111.529C482.743 111.551 482.889 111.503 483.099 111.383L496.56 99.5412C498.103 98.1058 499.956 97.1533 502.12 96.6839C504.283 96.2145 506.352 96.2502 508.328 96.791C510.797 97.467 512.809 98.6814 514.364 100.434C515.799 101.977 516.763 103.79 517.255 105.871C517.769 107.869 517.745 109.898 517.182 111.955C516.506 114.424 515.25 116.425 513.415 117.958L493.641 134.441C493.281 134.785 493.168 135.197 493.303 135.676L501.475 159.147C502.475 161.632 502.615 164.192 501.894 166.826C501.331 168.884 500.307 170.683 498.824 172.223C497.318 173.845 495.532 175.037 493.466 175.799C491.212 176.597 488.768 176.636 486.135 175.915C483.995 175.329 482.155 174.295 480.614 172.811C479.074 171.328 477.923 169.553 477.162 167.487L471.656 149.789C471.536 149.579 471.435 149.463 471.353 149.44C471.271 149.418 471.125 149.466 470.915 149.586Z"/>
</mask>
<path d="M63.0546 134.224C63.2698 134.334 63.4179 134.375 63.499 134.349L85.0411 127.332C85.2034 127.279 85.3392 127.145 85.4486 126.93C85.5581 126.715 85.5052 126.553 85.2901 126.443C83.5801 123.949 81.5004 122.248 79.051 121.34C76.6016 120.433 74.0786 120.402 71.4822 121.248C68.6424 122.173 66.4594 123.737 64.933 125.939C63.4614 128.034 62.7419 130.646 62.7744 133.777C62.7461 133.966 62.8395 134.115 63.0546 134.224ZM107.09 170.228C102.856 173.761 97.3723 176.624 90.6378 178.818C82.8486 181.355 75.329 181.965 68.079 180.647C60.9365 179.383 54.7109 176.251 49.4021 171.249C44.1198 166.328 40.1969 159.933 37.6333 152.062C35.0962 144.273 34.5131 136.835 35.8841 129.747C37.2003 122.767 40.3461 116.582 45.3215 111.192C50.161 105.936 56.6376 101.986 64.7514 99.3436C74.569 96.1458 83.7172 96.1277 92.1959 99.2892C100.593 102.477 107.348 109.162 112.459 119.344C113.656 121.915 114.029 124.576 113.578 127.325C113.156 129.886 111.952 132.253 109.967 134.425C108.064 136.571 105.732 138.093 102.974 138.991L68.7743 150.131C68.6931 150.157 68.5978 150.278 68.4884 150.493C68.379 150.708 68.4045 150.924 68.5649 151.141C70.4107 153.502 72.6395 155.109 75.2512 155.964C77.8365 156.737 80.5084 156.674 83.2671 155.776C86.8372 154.613 90.0268 151.869 92.836 147.544C94.9641 144.158 97.7321 141.91 101.14 140.8C103.899 139.902 106.543 139.893 109.074 140.774C111.361 141.734 113.121 142.866 114.353 144.17C115.88 145.826 116.921 147.507 117.476 149.21C118.374 151.969 118.222 154.532 117.018 156.898C114.77 162.118 111.46 166.561 107.09 170.228ZM175.036 127.343C177.198 123.773 177.9 119.758 177.142 115.299C176.383 110.841 174.309 107.298 170.919 104.672C167.53 102.046 163.816 101.077 159.778 101.764C157.675 102.122 155.692 102.935 153.831 104.204C150.639 106.305 148.649 108.851 147.859 111.842C147.125 114.65 147.001 117.484 147.488 120.344C148.275 124.971 150.265 128.528 153.458 131.014C156.749 133.57 160.582 134.476 164.957 133.732C169.584 132.945 172.943 130.815 175.036 127.343ZM172.136 191.198C164.733 192.457 157.732 192.263 151.133 190.616C144.534 188.969 138.968 185.761 134.435 180.992C132.971 179.51 132.088 177.886 131.788 176.119C131.444 174.1 131.662 172.072 132.441 170.036C133.219 167.999 134.518 166.22 136.337 164.699C138.001 163.29 139.885 162.407 141.988 162.049C145.774 161.405 149.509 162.241 153.192 164.558C157.985 167.291 162.695 168.265 167.322 167.477C171.528 166.762 174.869 165.285 177.344 163.046C179.82 160.807 181.108 157.948 181.209 154.468C181.18 154.3 181.21 152.694 181.298 149.649C181.283 149.565 181.178 149.453 180.981 149.313C180.882 149.244 180.798 149.258 180.728 149.356C178.548 151.805 175.827 153.869 172.563 155.549C169.454 157.117 166.049 158.216 162.348 158.845C155.113 160.076 148.51 159.425 142.539 156.892C136.302 154.317 131.112 150.267 126.969 144.739C122.84 139.296 120.103 132.62 118.758 124.713C117.513 117.394 117.825 110.329 119.696 103.519C121.526 96.9753 124.945 91.3734 129.951 86.713C134.804 82.1654 141.1 79.2333 148.839 77.9166C153.214 77.1724 157.605 77.2909 162.014 78.2722C166.155 79.2122 169.872 80.9603 173.163 83.5165C173.262 83.5863 173.437 83.5998 173.689 83.5568C173.858 83.5282 173.962 83.3806 174.003 83.1139C174.458 80.6994 175.651 78.549 177.58 76.6627C179.44 74.8747 181.632 73.7661 184.156 73.3368C187.605 72.75 190.757 73.4689 193.611 75.4935C196.466 77.5181 198.187 80.2549 198.773 83.704L208.691 142.002C210.28 151.34 209.795 159.429 207.237 166.27C204.664 173.027 200.319 178.526 194.203 182.77C188.157 186.914 180.801 189.724 172.136 191.198ZM266.461 118.976C269.056 115.706 270.258 111.812 270.067 107.293C269.876 102.774 268.264 98.999 265.232 95.967C262.2 92.935 258.638 91.5055 254.546 91.6785C252.414 91.7686 250.345 92.3258 248.339 93.3501C244.908 95.0325 242.613 97.3075 241.453 100.175C240.371 102.868 239.891 105.665 240.014 108.563C240.212 113.252 241.738 117.031 244.593 119.9C247.536 122.85 251.224 124.232 255.657 124.044C260.347 123.846 263.948 122.157 266.461 118.976ZM255.543 181.957C248.041 182.274 241.12 181.2 234.781 178.735C228.442 176.27 223.324 172.386 219.427 167.085C218.161 165.43 217.491 163.708 217.415 161.917C217.328 159.871 217.8 157.887 218.829 155.964C219.858 154.042 221.37 152.441 223.366 151.16C225.195 149.973 227.175 149.334 229.306 149.244C233.143 149.082 236.742 150.381 240.105 153.143C244.515 156.459 249.065 158.017 253.754 157.819C258.017 157.639 261.517 156.594 264.255 154.685C266.993 152.775 268.631 150.101 269.169 146.662C269.162 146.491 269.393 144.902 269.864 141.892C269.86 141.807 269.77 141.683 269.592 141.519C269.503 141.438 269.418 141.441 269.336 141.53C266.865 143.685 263.905 145.39 260.456 146.646C257.175 147.81 253.658 148.471 249.907 148.629C242.575 148.939 236.106 147.462 230.502 144.197C224.639 140.857 220 136.185 216.586 130.18C213.175 124.26 211.301 117.293 210.962 109.279C210.648 101.862 211.849 94.8926 214.562 88.3722C217.201 82.1111 221.298 76.9842 226.852 72.9914C232.238 69.0911 238.854 66.9752 246.697 66.6436C251.131 66.4562 255.472 67.1268 259.722 68.6553C263.712 70.1094 267.179 72.3117 270.122 75.262C270.211 75.3436 270.383 75.3791 270.639 75.3682C270.81 75.361 270.932 75.2277 271.006 74.9684C271.762 72.6304 273.215 70.6472 275.367 69.0189C277.437 67.4794 279.751 66.6556 282.309 66.5475C285.804 66.3997 288.841 67.5098 291.418 69.8778C293.995 72.2457 295.357 75.1775 295.505 78.673L298.002 137.756C298.402 147.22 296.903 155.184 293.503 161.648C290.1 168.026 285.098 172.935 278.496 176.375C271.976 179.725 264.325 181.586 255.543 181.957ZM368.223 148.752C365.721 145.81 364.629 142.383 364.946 138.47L371.746 54.5211C372.076 50.4384 373.713 47.1465 376.655 44.6452C379.689 42.0657 383.205 40.9379 387.203 41.2617C391.115 41.5786 394.361 43.2541 396.941 46.2883C399.442 49.2305 400.527 52.7429 400.197 56.8255L393.397 140.775C393.08 144.687 391.45 147.894 388.508 150.395C385.474 152.975 382.001 154.106 378.088 153.789C374.091 153.465 370.802 151.786 368.223 148.752ZM324.121 149.418C320.123 149.094 316.835 147.415 314.255 144.381C311.676 141.347 310.541 137.916 310.851 134.089L314.127 93.645C314.175 93.0496 313.948 92.6887 313.444 92.5623C310.332 91.8821 307.887 90.3571 306.11 87.9872C304.254 85.5254 303.451 82.7635 303.699 79.7015C303.96 76.4695 305.205 73.7879 307.432 71.6567C309.568 69.6038 312.226 68.4921 315.408 68.3217C315.925 68.278 316.204 68.001 316.245 67.4906C316.822 62.4862 317.896 58.207 319.468 54.6529C321.139 50.9357 323.371 47.692 326.164 44.9217C328.964 42.0664 332.392 39.9042 336.449 38.4349C340.925 37.0852 345.459 36.5963 350.052 36.9683C354.39 37.3197 358.737 38.6135 363.093 40.8499C365.406 41.8933 367.15 43.6184 368.324 46.0251C369.506 48.3468 369.983 50.911 369.756 53.7178C369.667 54.8235 369.449 55.9189 369.105 57.0039C368.231 59.3304 366.857 60.9741 364.981 61.9351C363.02 62.8893 360.934 63.2768 358.723 63.0977C357.787 63.0219 356.862 62.8185 355.947 62.4876L353.288 62.0154C350.822 61.8156 348.885 62.4721 347.478 63.9848C346.171 65.3342 345.286 67.2745 344.824 69.8054C344.81 69.9756 344.881 70.1526 345.038 70.3364C345.194 70.5203 345.357 70.6192 345.527 70.6329L350.503 71.036C353.82 71.3047 356.573 72.7262 358.762 75.3006C360.95 77.8751 361.903 80.9059 361.621 84.3932C361.352 87.7103 359.931 90.4632 357.356 92.6518C354.782 94.8405 351.836 95.8004 348.519 95.5317L343.543 95.1287C343.288 95.1081 343.111 95.1793 343.012 95.3425C342.815 95.669 342.712 95.8747 342.705 95.9598L339.43 136.403C339.12 140.231 337.447 143.434 334.413 146.014C331.379 148.593 327.948 149.728 324.121 149.418ZM430.946 71.3989C426.495 70.5959 423.042 68.5857 420.588 65.3681C418.134 62.1505 417.293 58.4003 418.065 54.1175C418.853 49.7506 420.959 46.4887 424.383 44.3317C427.906 42.1059 431.851 41.3869 436.218 42.1747C440.501 42.9474 443.904 44.9921 446.427 48.3088C448.951 51.6255 449.826 55.4252 449.053 59.7081C448.28 63.991 446.182 67.2109 442.758 69.3679C439.334 71.5249 435.397 72.2019 430.946 71.3989ZM405.847 152.845C403.644 149.673 402.906 146.071 403.634 142.04L412.815 91.1497C413.527 87.2027 415.469 84.128 418.641 81.9255C421.913 79.6543 425.522 78.8747 429.469 79.5867C433.416 80.2988 436.525 82.2905 438.796 85.5617C440.998 88.7338 441.744 92.2933 441.031 96.2403L431.85 147.131C431.123 151.162 429.173 154.278 426.001 156.481C422.73 158.752 419.121 159.532 415.174 158.82C411.227 158.108 408.118 156.116 405.847 152.845ZM470.915 149.586L456.409 162.336C454.934 163.525 453.144 164.406 451.04 164.98C449.229 165.457 447.253 165.403 445.113 164.817C442.726 164.164 440.654 162.844 438.898 160.859C436.236 157.654 435.492 153.911 436.663 149.631C437.497 146.586 438.82 144.338 440.633 142.888L460.093 126.584C460.452 126.24 460.565 125.828 460.431 125.349L452.079 101.564C451.266 99.0405 451.186 96.5856 451.839 94.1988C452.357 92.3058 453.422 90.5181 455.033 88.8357C456.411 87.3552 458.205 86.2979 460.413 85.6639C462.891 85.0152 465.282 85.0063 467.587 85.6372C469.974 86.2907 471.967 87.4115 473.567 88.9997C475.392 90.7379 476.561 92.6063 477.076 94.6051L482.235 111.147C482.354 111.356 482.496 111.484 482.661 111.529C482.743 111.551 482.889 111.503 483.099 111.383L496.56 99.5412C498.103 98.1058 499.956 97.1533 502.12 96.6839C504.283 96.2145 506.352 96.2502 508.328 96.791C510.797 97.467 512.809 98.6814 514.364 100.434C515.799 101.977 516.763 103.79 517.255 105.871C517.769 107.869 517.745 109.898 517.182 111.955C516.506 114.424 515.25 116.425 513.415 117.958L493.641 134.441C493.281 134.785 493.168 135.197 493.303 135.676L501.475 159.147C502.475 161.632 502.615 164.192 501.894 166.826C501.331 168.884 500.307 170.683 498.824 172.223C497.318 173.845 495.532 175.037 493.466 175.799C491.212 176.597 488.768 176.636 486.135 175.915C483.995 175.329 482.155 174.295 480.614 172.811C479.074 171.328 477.923 169.553 477.162 167.487L471.656 149.789C471.536 149.579 471.435 149.463 471.353 149.44C471.271 149.418 471.125 149.466 470.915 149.586Z" fill="url(#paint0_linear_450_2)"/>
<path d="M63.0546 134.224L58.5212 143.137L58.5213 143.138L63.0546 134.224ZM63.499 134.349L60.402 124.84L63.499 134.349ZM85.0411 127.332L81.944 117.824L85.0411 127.332ZM85.4486 126.93L94.362 131.463L94.362 131.463L85.4486 126.93ZM85.2901 126.443L77.042 132.097L78.4838 134.2L80.7566 135.356L85.2901 126.443ZM79.051 121.34L75.5774 130.718H75.5774L79.051 121.34ZM71.4822 121.248L74.5793 130.756L71.4822 121.248ZM64.933 125.939L73.1157 131.687L73.134 131.661L73.1521 131.635L64.933 125.939ZM62.7744 133.777L72.6639 135.259L72.7821 134.471L72.7738 133.673L62.7744 133.777ZM107.09 170.228L113.497 177.906L113.508 177.897L113.519 177.888L107.09 170.228ZM68.079 180.647L69.8677 170.808L69.8442 170.804L69.8208 170.799L68.079 180.647ZM49.4021 171.249L56.2596 163.97L56.239 163.951L56.2182 163.932L49.4021 171.249ZM35.8841 129.747L45.7021 131.646L45.7066 131.623L45.7109 131.6L35.8841 129.747ZM45.3215 111.192L52.6695 117.975L52.6779 117.965L45.3215 111.192ZM92.1959 99.2892L95.7451 89.9403L95.7174 89.9298L95.6897 89.9194L92.1959 99.2892ZM112.459 119.344L121.526 115.125L121.463 114.99L121.396 114.857L112.459 119.344ZM113.578 127.325L123.445 128.953L123.447 128.943L113.578 127.325ZM109.967 134.425L102.585 127.679L102.536 127.733L102.487 127.788L109.967 134.425ZM102.974 138.991L99.8767 129.483L102.974 138.991ZM68.7743 150.131L71.8713 159.639L68.7743 150.131ZM68.4884 150.493L77.4018 155.027L77.4018 155.027L68.4884 150.493ZM68.5649 151.141L60.5239 157.086L60.6042 157.195L60.6875 157.301L68.5649 151.141ZM75.2512 155.964L72.1416 165.468L72.263 165.508L72.3853 165.544L75.2512 155.964ZM92.836 147.544L101.222 152.99L101.263 152.928L101.302 152.865L92.836 147.544ZM101.14 140.8L98.0428 131.292L101.14 140.8ZM109.074 140.774L112.945 131.553L112.656 131.432L112.361 131.33L109.074 140.774ZM114.353 144.17L121.706 137.393L121.664 137.346L121.62 137.3L114.353 144.17ZM117.018 156.898L108.105 152.365L107.96 152.649L107.834 152.942L117.018 156.898ZM63.0546 134.224L58.5213 143.138C58.925 143.343 59.6701 143.698 60.6298 143.967C61.2802 144.149 63.6975 144.801 66.5961 143.857L63.499 134.349L60.402 124.84C61.9311 124.342 63.2539 124.323 64.0814 124.377C64.9307 124.433 65.6038 124.59 66.0244 124.708C66.836 124.935 67.3994 125.215 67.588 125.311L63.0546 134.224ZM63.499 134.349L66.5961 143.857L88.1382 136.84L85.0411 127.332L81.944 117.824L60.402 124.84L63.499 134.349ZM85.0411 127.332L88.1382 136.84C91.7116 135.676 93.5537 133.053 94.362 131.463L85.4486 126.93L76.5353 122.396C77.1247 121.238 78.6952 118.882 81.944 117.824L85.0411 127.332ZM85.4486 126.93L94.362 131.463C95.1155 129.982 96.1369 127.042 94.9994 123.55C93.8619 120.057 91.305 118.283 89.8235 117.53L85.2901 126.443L80.7566 135.356C79.4902 134.712 77.0674 133.074 75.9827 129.744C74.8981 126.414 75.8912 123.663 76.5353 122.396L85.4486 126.93ZM85.2901 126.443L93.5381 120.789C90.8501 116.868 87.2055 113.697 82.5246 111.963L79.051 121.34L75.5774 130.718C75.7954 130.799 76.3102 131.03 77.042 132.097L85.2901 126.443ZM79.051 121.34L82.5246 111.963C77.8612 110.236 73.0192 110.23 68.3852 111.74L71.4822 121.248L74.5793 130.756C75.1381 130.574 75.3419 130.631 75.5774 130.718L79.051 121.34ZM71.4822 121.248L68.3852 111.74C63.7182 113.26 59.6275 116.039 56.714 120.243L64.933 125.939L73.1521 131.635C73.2912 131.435 73.5667 131.086 74.5793 130.756L71.4822 121.248ZM64.933 125.939L56.7504 120.191C53.829 124.349 52.7256 129.132 52.7749 133.881L62.7744 133.777L72.7738 133.673C72.7581 132.161 73.0939 131.718 73.1157 131.687L64.933 125.939ZM62.7744 133.777L52.8848 132.295C52.5491 134.534 52.9244 137.066 54.3499 139.341C55.653 141.42 57.3752 142.555 58.5212 143.137L63.0546 134.224L67.5881 125.311C68.5189 125.784 70.0868 126.789 71.2965 128.72C72.6286 130.845 72.9713 133.208 72.6639 135.259L62.7744 133.777ZM107.09 170.228L100.684 162.55C97.6607 165.073 93.3943 167.403 87.5408 169.31L90.6378 178.818L93.7349 188.326C101.35 185.846 108.052 182.45 113.497 177.906L107.09 170.228ZM90.6378 178.818L87.5408 169.31C81.1483 171.392 75.311 171.797 69.8677 170.808L68.079 180.647L66.2902 190.485C75.347 192.132 84.5489 191.318 93.7349 188.326L90.6378 178.818ZM68.079 180.647L69.8208 170.799C64.6088 169.877 60.1583 167.644 56.2596 163.97L49.4021 171.249L42.5446 178.527C49.2634 184.857 57.2642 188.889 66.3372 190.494L68.079 180.647ZM49.4021 171.249L56.2182 163.932C52.3484 160.327 49.2579 155.462 47.1416 148.965L37.6333 152.062L28.125 155.159C31.1358 164.403 35.8912 172.33 42.586 178.566L49.4021 171.249ZM37.6333 152.062L47.1416 148.965C45.0579 142.568 44.6945 136.855 45.7021 131.646L35.8841 129.747L26.0661 127.848C24.3318 136.814 25.1346 145.978 28.125 155.159L37.6333 152.062ZM35.8841 129.747L45.7109 131.6C46.6678 126.525 48.9227 122.034 52.6695 117.975L45.3215 111.192L37.9735 104.409C31.7696 111.13 27.7329 119.008 26.0573 127.894L35.8841 129.747ZM45.3215 111.192L52.6779 117.965C56.149 114.196 61.0485 111.067 67.8484 108.852L64.7514 99.3436L61.6543 89.8353C52.2267 92.9061 44.173 97.6759 37.965 104.418L45.3215 111.192ZM64.7514 99.3436L67.8484 108.852C75.8356 106.25 82.6358 106.397 88.7021 108.659L92.1959 99.2892L95.6897 89.9194C84.7986 85.8583 73.3025 86.0413 61.6543 89.8353L64.7514 99.3436ZM92.1959 99.2892L88.6467 108.638C94.1236 110.717 99.2216 115.264 103.522 123.83L112.459 119.344L121.396 114.857C115.474 103.06 107.063 94.237 95.7451 89.9403L92.1959 99.2892ZM112.459 119.344L103.393 123.562C103.758 124.349 103.829 124.978 103.71 125.708L113.578 127.325L123.447 128.943C124.228 124.174 123.553 119.482 121.526 115.125L112.459 119.344ZM113.578 127.325L103.712 125.698C103.645 126.101 103.444 126.74 102.585 127.679L109.967 134.425L117.35 141.17C120.461 137.766 122.667 133.671 123.445 128.953L113.578 127.325ZM109.967 134.425L102.487 127.788C101.777 128.588 100.965 129.128 99.8767 129.483L102.974 138.991L106.071 148.5C110.5 147.057 114.35 144.553 117.448 141.061L109.967 134.425ZM102.974 138.991L99.8767 129.483L65.6772 140.622L68.7743 150.131L71.8713 159.639L106.071 148.5L102.974 138.991ZM68.7743 150.131L65.6772 140.622C62.7786 141.567 61.2092 143.517 60.7908 144.048C60.1735 144.83 59.7804 145.556 59.5751 145.96L68.4884 150.493L77.4018 155.027C77.3059 155.215 77.0151 155.773 76.4931 156.435C76.2225 156.778 75.7711 157.301 75.1176 157.846C74.4809 158.378 73.4004 159.141 71.8713 159.639L68.7743 150.131ZM68.4884 150.493L59.5751 145.96C58.7271 147.627 58.2253 149.708 58.4944 151.989C58.7547 154.194 59.6552 155.911 60.5239 157.086L68.5649 151.141L76.606 145.196C77.3142 146.154 78.1217 147.655 78.3565 149.644C78.6002 151.709 78.1404 153.574 77.4018 155.027L68.4884 150.493ZM68.5649 151.141L60.6875 157.301C63.6401 161.077 67.4734 163.941 72.1416 165.468L75.2512 155.964L78.3607 146.459C77.8055 146.278 77.1813 145.926 76.4424 144.981L68.5649 151.141ZM75.2512 155.964L72.3853 165.544C77.068 166.945 81.8245 166.763 86.3642 165.284L83.2671 155.776L80.1701 146.268C79.1924 146.586 78.6049 146.529 78.117 146.383L75.2512 155.964ZM83.2671 155.776L86.3642 165.284C92.7989 163.188 97.6287 158.524 101.222 152.99L92.836 147.544L84.4496 142.097C82.4249 145.214 80.8755 146.038 80.1701 146.268L83.2671 155.776ZM92.836 147.544L101.302 152.865C102.339 151.216 103.313 150.609 104.237 150.309L101.14 140.8L98.0428 131.292C92.151 133.211 87.5892 137.1 84.3697 142.222L92.836 147.544ZM101.14 140.8L104.237 150.309C105.1 150.027 105.494 150.116 105.786 150.218L109.074 140.774L112.361 131.33C107.592 129.67 102.697 129.776 98.0428 131.292L101.14 140.8ZM109.074 140.774L105.203 149.994C106.667 150.609 107.101 151.055 107.086 151.039L114.353 144.17L121.62 137.3C119.14 134.676 116.055 132.859 112.945 131.553L109.074 140.774ZM114.353 144.17L107 150.947C107.795 151.81 107.957 152.275 107.967 152.307L117.476 149.21L126.984 146.113C125.885 142.738 123.965 139.843 121.706 137.393L114.353 144.17ZM117.476 149.21L107.967 152.307C108.025 152.484 108.044 152.59 108.049 152.631C108.055 152.67 108.05 152.658 108.053 152.607C108.056 152.555 108.066 152.493 108.082 152.434C108.098 152.375 108.112 152.351 108.105 152.365L117.018 156.898L125.932 161.432C128.455 156.47 128.62 151.136 126.984 146.113L117.476 149.21ZM117.018 156.898L107.834 152.942C106.205 156.723 103.842 159.9 100.662 162.568L107.09 170.228L113.519 177.888C119.079 173.223 123.334 167.512 126.202 160.855L117.018 156.898ZM175.036 127.343L166.482 122.163L166.477 122.172L166.471 122.181L175.036 127.343ZM170.919 104.672L177.044 96.7671H177.044L170.919 104.672ZM159.778 101.764L161.455 111.622L159.778 101.764ZM153.831 104.204L159.329 112.556L159.397 112.512L159.463 112.467L153.831 104.204ZM147.859 111.842L138.19 109.289L138.187 109.301L138.184 109.312L147.859 111.842ZM147.488 120.344L137.63 122.021L147.488 120.344ZM153.458 131.014L147.314 138.904L147.324 138.912L153.458 131.014ZM164.957 133.732L163.28 123.874L164.957 133.732ZM172.136 191.198L170.459 181.34L172.136 191.198ZM151.133 190.616L153.555 180.914V180.914L151.133 190.616ZM134.435 180.992L141.682 174.102L141.616 174.033L141.549 173.965L134.435 180.992ZM132.441 170.036L123.1 166.464V166.464L132.441 170.036ZM136.337 164.699L142.753 172.369L142.774 172.351L142.796 172.333L136.337 164.699ZM153.192 164.558L147.868 173.023L148.051 173.138L148.238 173.244L153.192 164.558ZM177.344 163.046L170.637 155.629L177.344 163.046ZM181.209 154.468L191.204 154.757L191.233 153.767L191.067 152.791L181.209 154.468ZM181.298 149.649L191.293 149.938L191.322 148.948L191.156 147.972L181.298 149.649ZM180.981 149.313L186.766 141.157L186.766 141.156L180.981 149.313ZM180.728 149.356L188.197 156.007L188.565 155.593L188.885 155.141L180.728 149.356ZM172.563 155.549L177.066 164.479L177.104 164.459L177.142 164.44L172.563 155.549ZM142.539 156.892L146.445 147.686L146.4 147.667L146.354 147.648L142.539 156.892ZM126.969 144.739L134.97 138.741L134.953 138.719L134.936 138.696L126.969 144.739ZM119.696 103.519L110.066 100.826L110.06 100.848L110.054 100.87L119.696 103.519ZM129.951 86.713L136.765 94.0327L136.777 94.0212L136.789 94.0097L129.951 86.713ZM148.839 77.9166L147.162 68.0583L148.839 77.9166ZM162.014 78.2722L164.227 68.5202L164.207 68.5156L164.186 68.511L162.014 78.2722ZM173.163 83.5165L167.029 91.4144L167.201 91.5477L167.378 91.6734L173.163 83.5165ZM173.689 83.5568L172.012 73.6985L173.689 83.5568ZM174.004 83.1139L164.176 81.2627L164.146 81.4245L164.121 81.5873L174.004 83.1139ZM177.58 76.6627L170.65 69.4536L170.62 69.4826L170.59 69.5118L177.58 76.6627ZM184.156 73.3368L185.833 83.1951L184.156 73.3368ZM193.611 75.4935L199.396 67.3367L199.396 67.3367L193.611 75.4935ZM198.773 83.704L208.632 82.0269L198.773 83.704ZM207.237 166.27L216.582 169.829L216.593 169.801L216.603 169.773L207.237 166.27ZM194.203 182.77L199.857 191.018L199.88 191.002L199.903 190.986L194.203 182.77ZM175.036 127.343L183.59 132.524C187.104 126.72 188.125 120.236 187 113.622L177.142 115.299L167.284 116.977C167.675 119.28 167.293 120.825 166.482 122.163L175.036 127.343ZM177.142 115.299L187 113.622C185.847 106.841 182.53 101.018 177.044 96.7671L170.919 104.672L164.795 112.578C166.088 113.579 166.92 114.84 167.284 116.977L177.142 115.299ZM170.919 104.672L177.044 96.7671C171.558 92.5178 165.041 90.7249 158.101 91.9055L159.778 101.764L161.455 111.622C162.591 111.429 163.501 111.575 164.795 112.578L170.919 104.672ZM159.778 101.764L158.101 91.9055C154.501 92.5179 151.181 93.9083 148.199 95.9407L153.831 104.204L159.463 112.467C160.204 111.962 160.848 111.725 161.455 111.622L159.778 101.764ZM153.831 104.204L148.332 95.8513C143.589 98.974 139.747 103.391 138.19 109.289L147.859 111.842L157.528 114.394C157.55 114.31 157.69 113.636 159.329 112.556L153.831 104.204ZM147.859 111.842L138.184 109.312C137.091 113.493 136.905 117.761 137.63 122.021L147.488 120.344L157.346 118.667C157.098 117.207 157.159 115.806 157.534 114.371L147.859 111.842ZM147.488 120.344L137.63 122.021C138.764 128.691 141.839 134.64 147.314 138.904L153.458 131.014L159.602 123.124C158.692 122.415 157.786 121.252 157.346 118.667L147.488 120.344ZM153.458 131.014L147.324 138.912C152.986 143.309 159.697 144.771 166.634 143.59L164.957 133.732L163.28 123.874C161.467 124.182 160.513 123.832 159.592 123.116L153.458 131.014ZM164.957 133.732L166.634 143.59C173.629 142.401 179.761 138.876 183.601 132.505L175.036 127.343L166.471 122.181C166.126 122.755 165.538 123.489 163.28 123.874L164.957 133.732ZM172.136 191.198L170.459 181.34C164.276 182.392 158.68 182.193 153.555 180.914L151.133 190.616L148.711 200.319C156.785 202.334 165.19 202.523 173.813 201.056L172.136 191.198ZM151.133 190.616L153.555 180.914C148.733 179.71 144.861 177.446 141.682 174.102L134.435 180.992L127.187 187.882C133.075 194.076 140.335 198.228 148.711 200.319L151.133 190.616ZM134.435 180.992L141.549 173.965C141.395 173.81 141.402 173.778 141.462 173.89C141.492 173.944 141.529 174.023 141.564 174.124C141.6 174.225 141.628 174.333 141.646 174.442L131.788 176.119L121.929 177.796C122.627 181.9 124.656 185.322 127.32 188.02L134.435 180.992ZM131.788 176.119L141.646 174.442C141.622 174.303 141.599 174.085 141.781 173.607L132.441 170.036L123.1 166.464C121.725 170.06 121.266 173.898 121.929 177.796L131.788 176.119ZM132.441 170.036L141.781 173.607C141.898 173.301 142.125 172.894 142.753 172.369L136.337 164.699L129.921 157.028C126.911 159.546 124.541 162.697 123.1 166.464L132.441 170.036ZM136.337 164.699L142.796 172.333C143.126 172.053 143.367 171.958 143.666 171.908L141.988 162.049L140.311 152.191C136.403 152.856 132.877 154.527 129.878 157.065L136.337 164.699ZM141.988 162.049L143.666 171.908C144.701 171.732 145.971 171.83 147.868 173.023L153.192 164.558L158.516 156.093C153.046 152.653 146.847 151.079 140.311 152.191L141.988 162.049ZM153.192 164.558L148.238 173.244C154.67 176.913 161.706 178.576 168.999 177.336L167.322 167.477L165.645 157.619C163.684 157.953 161.3 157.67 158.146 155.871L153.192 164.558ZM167.322 167.477L168.999 177.336C174.564 176.389 179.822 174.288 184.052 170.462L177.344 163.046L170.637 155.629C169.915 156.281 168.492 157.135 165.645 157.619L167.322 167.477ZM177.344 163.046L184.052 170.462C188.645 166.309 191.029 160.83 191.204 154.757L181.209 154.468L171.213 154.179C171.187 155.065 170.995 155.305 170.637 155.629L177.344 163.046ZM181.209 154.468L191.067 152.791C191.121 153.11 191.148 153.363 191.16 153.485C191.173 153.626 191.181 153.738 191.185 153.808C191.193 153.944 191.196 154.041 191.197 154.072C191.199 154.136 191.198 154.15 191.198 154.078C191.198 153.945 191.201 153.703 191.208 153.322C191.221 152.572 191.25 151.45 191.293 149.938L181.298 149.649L171.302 149.36C171.257 150.892 171.227 152.096 171.211 152.952C171.203 153.374 171.198 153.756 171.198 154.066C171.198 154.216 171.199 154.407 171.204 154.604C171.207 154.7 171.212 154.852 171.223 155.032C171.228 155.123 171.254 155.581 171.35 156.145L181.209 154.468ZM181.298 149.649L191.156 147.972C190.645 144.967 188.944 143.129 188.48 142.638C187.796 141.913 187.135 141.419 186.766 141.157L180.981 149.313L175.196 157.47C175.023 157.348 174.514 156.979 173.935 156.366C173.635 156.048 173.184 155.525 172.739 154.799C172.307 154.092 171.709 152.912 171.439 151.326L181.298 149.649ZM180.981 149.313L186.766 141.156C185.459 140.23 182.746 138.805 179.167 139.413C175.588 140.022 173.498 142.265 172.572 143.571L180.728 149.356L188.885 155.141C188.028 156.349 186.016 158.536 182.521 159.13C179.026 159.725 176.404 158.327 175.196 157.47L180.981 149.313ZM180.728 149.356L173.26 142.706C171.989 144.133 170.285 145.474 167.985 146.659L172.563 155.549L177.142 164.44C181.368 162.264 185.107 159.476 188.197 156.007L180.728 149.356ZM172.563 155.549L168.061 146.62C165.909 147.705 163.466 148.511 160.67 148.987L162.348 158.845L164.025 168.704C168.632 167.92 172.999 166.529 177.066 164.479L172.563 155.549ZM162.348 158.845L160.67 148.987C155.066 149.941 150.432 149.377 146.445 147.686L142.539 156.892L138.634 166.098C146.589 169.473 155.16 170.212 164.025 168.704L162.348 158.845ZM142.539 156.892L146.354 147.648C141.82 145.777 138.062 142.866 134.97 138.741L126.969 144.739L118.967 150.737C124.161 157.667 130.784 162.858 138.724 166.135L142.539 156.892ZM126.969 144.739L134.936 138.696C131.936 134.74 129.738 129.633 128.616 123.035L118.758 124.713L108.899 126.39C110.467 135.608 113.744 143.851 119.001 150.782L126.969 144.739ZM118.758 124.713L128.616 123.035C127.603 117.082 127.875 111.497 129.339 106.168L119.696 103.519L110.054 100.87C107.776 109.161 107.422 117.706 108.899 126.39L118.758 124.713ZM119.696 103.519L129.327 106.212C130.658 101.453 133.095 97.4482 136.765 94.0327L129.951 86.713L123.138 79.3933C116.794 85.2985 112.395 92.4978 110.066 100.826L119.696 103.519ZM129.951 86.713L136.789 94.0097C139.968 91.031 144.356 88.8231 150.517 87.775L148.839 77.9166L147.162 68.0583C137.844 69.6435 129.64 73.2998 123.113 79.4163L129.951 86.713ZM148.839 77.9166L150.517 87.775C153.591 87.252 156.674 87.3285 159.841 88.0333L162.014 78.2722L164.186 68.511C158.536 67.2534 152.837 67.0928 147.162 68.0583L148.839 77.9166ZM162.014 78.2722L159.8 88.0241C162.543 88.6467 164.916 89.7731 167.029 91.4144L173.163 83.5165L179.297 75.6187C174.828 72.1476 169.767 69.7777 164.227 68.5202L162.014 78.2722ZM173.163 83.5165L167.378 91.6734C169.433 93.1307 171.487 93.4641 172.605 93.5498C173.785 93.6402 174.764 93.5176 175.366 93.4152L173.689 83.5568L172.012 73.6985C172.362 73.639 173.128 73.5312 174.132 73.6082C175.075 73.6804 176.992 73.9721 178.948 75.3596L173.163 83.5165ZM173.689 83.5568L175.366 93.4152C182.083 92.2725 183.635 86.268 183.886 84.6404L174.004 83.1139L164.121 81.5873C164.23 80.8774 164.56 79.3001 165.737 77.6396C167.116 75.6958 169.311 74.1581 172.012 73.6985L173.689 83.5568ZM174.004 83.1139L183.831 84.9651C183.868 84.7643 183.957 84.4137 184.571 83.8135L177.58 76.6627L170.59 69.5118C167.344 72.6843 165.048 76.6345 164.176 81.2627L174.004 83.1139ZM177.58 76.6627L184.51 83.8717C184.937 83.4622 185.302 83.2854 185.833 83.1951L184.156 73.3368L182.478 63.4784C177.961 64.2469 173.944 66.2873 170.65 69.4536L177.58 76.6627ZM184.156 73.3368L185.833 83.1951C186.666 83.0533 187.134 83.1595 187.826 83.6503L193.611 75.4935L199.396 67.3367C194.379 63.7783 188.543 62.4467 182.478 63.4784L184.156 73.3368ZM193.611 75.4935L187.826 83.6503C188.518 84.1411 188.773 84.5475 188.915 85.3812L198.773 83.704L208.632 82.0269C207.6 75.9623 204.413 70.895 199.396 67.3367L193.611 75.4935ZM198.773 83.704L188.915 85.3812L198.833 143.68L208.691 142.002L218.55 140.325L208.632 82.0269L198.773 83.704ZM208.691 142.002L198.833 143.68C200.211 151.782 199.653 158.001 197.87 162.767L207.237 166.27L216.603 169.773C219.937 160.858 220.348 150.898 218.55 140.325L208.691 142.002ZM207.237 166.27L197.891 162.712C196.058 167.525 193.015 171.423 188.503 174.553L194.203 182.77L199.903 190.986C207.624 185.63 213.269 178.528 216.582 169.829L207.237 166.27ZM194.203 182.77L188.549 174.522C183.91 177.702 177.977 180.061 170.459 181.34L172.136 191.198L173.813 201.056C183.625 199.387 192.404 196.127 199.857 191.018L194.203 182.77ZM266.461 118.976L258.628 112.759L258.621 112.768L258.615 112.776L266.461 118.976ZM265.232 95.967L272.303 88.8958V88.8958L265.232 95.967ZM248.339 93.3501L252.742 102.329L252.814 102.293L252.885 102.257L248.339 93.3501ZM241.453 100.175L232.182 96.4252L232.178 96.4365L232.173 96.4477L241.453 100.175ZM240.014 108.563L250.005 108.141L240.014 108.563ZM244.593 119.9L237.504 126.953L237.513 126.963L244.593 119.9ZM234.781 178.735L238.405 169.415V169.415L234.781 178.735ZM219.427 167.085L227.484 161.162L227.428 161.085L227.37 161.009L219.427 167.085ZM217.415 161.917L207.424 162.34L217.415 161.917ZM218.829 155.964L210.012 151.245L210.012 151.245L218.829 155.964ZM223.366 151.16L228.765 159.578L228.789 159.562L228.812 159.547L223.366 151.16ZM240.105 153.143L233.757 160.871L233.924 161.007L234.096 161.137L240.105 153.143ZM253.754 157.819L253.332 147.828L253.754 157.819ZM269.169 146.662L279.049 148.207L279.202 147.229L279.16 146.24L269.169 146.662ZM269.864 141.892L279.744 143.438L279.897 142.459L279.855 141.47L269.864 141.892ZM269.592 141.519L276.358 134.156L276.358 134.156L269.592 141.519ZM269.336 141.53L275.907 149.068L276.325 148.704L276.7 148.296L269.336 141.53ZM260.456 146.646L263.798 156.071L263.839 156.057L263.879 156.042L260.456 146.646ZM230.502 144.197L235.536 135.556L235.494 135.531L235.451 135.507L230.502 144.197ZM216.586 130.18L225.279 125.238L225.265 125.213L225.251 125.188L216.586 130.18ZM214.562 88.3722L205.347 84.4879L205.339 84.5088L205.33 84.5298L214.562 88.3722ZM226.852 72.9914L232.689 81.1108L232.703 81.101L232.716 81.0912L226.852 72.9914ZM246.697 66.6436L246.275 56.6525L246.697 66.6436ZM259.722 68.6553L263.146 59.2597L263.126 59.2526L263.106 59.2455L259.722 68.6553ZM270.122 75.262L263.043 82.3245L263.196 82.4784L263.356 82.6255L270.122 75.262ZM270.639 75.3682L271.061 85.3593V85.3593L270.639 75.3682ZM271.007 74.9684L261.491 71.8944L261.44 72.0511L261.395 72.2095L271.007 74.9684ZM275.367 69.0189L269.4 60.9945L269.366 61.0195L269.333 61.0447L275.367 69.0189ZM282.309 66.5475L282.731 76.5386L282.309 66.5475ZM291.418 69.8778L298.184 62.5144L298.184 62.5144L291.418 69.8778ZM295.505 78.673L285.514 79.0953L295.505 78.673ZM298.002 137.756L288.011 138.179L298.002 137.756ZM293.503 161.648L302.326 166.354L302.34 166.328L302.354 166.302L293.503 161.648ZM278.496 176.375L283.066 185.269L283.091 185.256L283.116 185.243L278.496 176.375ZM266.461 118.976L274.294 125.192C278.512 119.877 280.341 113.573 280.058 106.871L270.067 107.293L260.076 107.715C260.174 110.05 259.6 111.534 258.628 112.759L266.461 118.976ZM270.067 107.293L280.058 106.871C279.767 99.9984 277.211 93.8035 272.303 88.8958L265.232 95.967L258.161 103.038C259.318 104.194 259.984 105.55 260.076 107.715L270.067 107.293ZM265.232 95.967L272.303 88.8958C267.397 83.9895 261.156 81.3901 254.123 81.6874L254.546 91.6785L254.968 101.67C256.119 101.621 257.004 101.881 258.161 103.038L265.232 95.967ZM254.546 91.6785L254.123 81.6874C250.475 81.8416 247.006 82.8028 243.792 84.4436L248.339 93.3501L252.885 102.257C253.684 101.849 254.353 101.696 254.968 101.67L254.546 91.6785ZM248.339 93.3501L243.936 84.3716C238.837 86.8722 234.47 90.7708 232.182 96.4252L241.453 100.175L250.723 103.925C250.756 103.844 250.979 103.193 252.742 102.329L248.339 93.3501ZM241.453 100.175L232.173 96.4477C230.563 100.458 229.84 104.668 230.023 108.986L240.014 108.563L250.005 108.141C249.942 106.661 250.179 105.279 250.732 103.902L241.453 100.175ZM240.014 108.563L230.023 108.986C230.308 115.745 232.609 122.034 237.504 126.953L244.593 119.9L251.681 112.847C250.867 112.029 250.115 110.76 250.005 108.141L240.014 108.563ZM244.593 119.9L237.513 126.963C242.576 132.037 249.05 134.333 256.08 134.035L255.657 124.044L255.235 114.053C253.398 114.131 252.496 113.663 251.672 112.837L244.593 119.9ZM255.657 124.044L256.08 134.035C263.169 133.736 269.696 131.012 274.308 125.175L266.461 118.976L258.615 112.776C258.2 113.301 257.524 113.957 255.235 114.053L255.657 124.044ZM255.543 181.957L255.121 171.966C248.855 172.231 243.328 171.329 238.405 169.415L234.781 178.735L231.156 188.055C238.912 191.071 247.227 192.317 255.966 191.948L255.543 181.957ZM234.781 178.735L238.405 169.415C233.773 167.614 230.217 164.88 227.484 161.162L219.427 167.085L211.369 173.007C216.43 179.893 223.11 184.926 231.156 188.055L234.781 178.735ZM219.427 167.085L227.37 161.009C227.237 160.836 227.247 160.806 227.293 160.924C227.316 160.982 227.343 161.065 227.365 161.169C227.387 161.274 227.401 161.385 227.406 161.495L217.415 161.917L207.424 162.34C207.6 166.498 209.181 170.149 211.484 173.16L219.427 167.085ZM217.415 161.917L227.406 161.495C227.4 161.353 227.404 161.134 227.645 160.683L218.829 155.964L210.012 151.245C208.195 154.639 207.257 158.389 207.424 162.34L217.415 161.917ZM218.829 155.964L227.645 160.683C227.8 160.394 228.076 160.019 228.765 159.578L223.366 151.16L217.967 142.743C214.664 144.862 211.916 147.689 210.012 151.245L218.829 155.964ZM223.366 151.16L228.812 159.547C229.175 159.312 229.426 159.248 229.729 159.235L229.306 149.244L228.884 139.253C224.923 139.42 221.214 140.634 217.92 142.774L223.366 151.16ZM229.306 149.244L229.729 159.235C230.778 159.191 232.025 159.448 233.757 160.871L240.105 153.143L246.452 145.416C241.459 141.315 235.508 138.973 228.884 139.253L229.306 149.244ZM240.105 153.143L234.096 161.137C240.015 165.586 246.786 168.122 254.177 167.81L253.754 157.819L253.332 147.828C251.345 147.912 249.015 147.331 246.113 145.15L240.105 153.143ZM253.754 157.819L254.177 167.81C259.816 167.572 265.298 166.149 269.975 162.887L264.255 154.685L258.535 146.482C257.737 147.039 256.218 147.706 253.332 147.828L253.754 157.819ZM264.255 154.685L269.975 162.887C275.055 159.345 278.11 154.21 279.049 148.207L269.169 146.662L259.289 145.117C259.152 145.992 258.931 146.206 258.535 146.482L264.255 154.685ZM269.169 146.662L279.16 146.24C279.174 146.563 279.168 146.817 279.164 146.94C279.16 147.081 279.154 147.194 279.149 147.263C279.14 147.399 279.131 147.496 279.128 147.526C279.121 147.591 279.119 147.605 279.128 147.533C279.145 147.401 279.178 147.161 279.233 146.784C279.341 146.041 279.51 144.932 279.744 143.438L269.864 141.892L259.984 140.347C259.747 141.861 259.565 143.052 259.442 143.899C259.381 144.317 259.328 144.694 259.289 145.003C259.27 145.151 259.246 145.341 259.227 145.537C259.217 145.632 259.203 145.784 259.191 145.963C259.185 146.055 259.154 146.513 259.178 147.084L269.169 146.662ZM269.864 141.892L279.855 141.47C279.726 138.424 278.27 136.387 277.872 135.842C277.285 135.037 276.692 134.463 276.358 134.156L269.592 141.519L262.826 148.883C262.67 148.74 262.211 148.31 261.714 147.629C261.457 147.276 261.075 146.7 260.725 145.924C260.385 145.168 259.941 143.921 259.873 142.315L269.864 141.892ZM269.592 141.519L276.358 134.156C275.179 133.072 272.666 131.317 269.039 131.47C265.412 131.623 263.057 133.585 261.973 134.764L269.336 141.53L276.7 148.296C275.697 149.387 273.425 151.302 269.884 151.452C266.342 151.602 263.916 149.885 262.826 148.883L269.592 141.519ZM269.336 141.53L262.765 133.992C261.324 135.248 259.465 136.364 257.034 137.25L260.456 146.646L263.879 156.042C268.345 154.415 272.405 152.121 275.907 149.068L269.336 141.53ZM260.456 146.646L257.114 137.221C254.843 138.026 252.317 138.518 249.484 138.638L249.907 148.629L250.329 158.62C254.999 158.423 259.506 157.593 263.798 156.071L260.456 146.646ZM249.907 148.629L249.484 138.638C243.804 138.878 239.278 137.736 235.536 135.556L230.502 144.197L225.468 152.837C232.935 157.187 241.345 159 250.329 158.62L249.907 148.629ZM230.502 144.197L235.451 135.507C231.188 133.08 227.827 129.719 225.279 125.238L216.586 130.18L207.892 135.122C212.173 142.652 218.089 148.635 225.553 152.886L230.502 144.197ZM216.586 130.18L225.251 125.188C222.773 120.887 221.236 115.543 220.953 108.857L210.962 109.279L200.971 109.701C201.366 119.043 203.578 127.634 207.921 135.172L216.586 130.18ZM210.962 109.279L220.953 108.857C220.698 102.823 221.671 97.317 223.795 92.2146L214.562 88.3722L205.33 84.5298C202.026 92.4682 200.599 100.9 200.971 109.701L210.962 109.279ZM214.562 88.3722L223.777 92.2566C225.697 87.7029 228.619 84.0371 232.689 81.1108L226.852 72.9914L221.014 64.872C213.977 69.9313 208.706 76.5193 205.347 84.4879L214.562 88.3722ZM226.852 72.9914L232.716 81.0912C236.245 78.5364 240.876 76.8986 247.12 76.6347L246.697 66.6436L246.275 56.6525C236.831 57.0517 228.232 59.6458 220.987 64.8917L226.852 72.9914ZM246.697 66.6436L247.12 76.6347C250.235 76.503 253.285 76.9672 256.337 78.0651L259.722 68.6553L263.106 59.2455C257.66 57.2864 252.026 56.4094 246.275 56.6525L246.697 66.6436ZM259.722 68.6553L256.298 78.0509C258.941 79.014 261.153 80.4302 263.043 82.3245L270.122 75.262L277.202 68.1994C273.205 64.1931 268.483 61.2049 263.146 59.2597L259.722 68.6553ZM270.122 75.262L263.356 82.6255C265.211 84.3299 267.206 84.9192 268.305 85.145C269.464 85.3833 270.451 85.3851 271.061 85.3593L270.639 75.3682L270.217 65.3772C270.571 65.3622 271.344 65.3517 272.331 65.5546C273.257 65.7449 275.122 66.2757 276.888 67.8985L270.122 75.262ZM270.639 75.3682L271.061 85.3593C277.869 85.0716 280.164 79.3102 280.618 77.7273L271.007 74.9684L261.395 72.2095C261.593 71.519 262.118 69.9957 263.495 68.4967C265.108 66.742 267.479 65.4929 270.217 65.3772L270.639 75.3682ZM271.007 74.9684L280.522 78.0424C280.585 77.8479 280.717 77.5112 281.401 76.9931L275.367 69.0189L269.333 61.0447C265.714 63.7833 262.938 67.4128 261.491 71.8944L271.007 74.9684ZM275.367 69.0189L281.334 77.0433C281.809 76.6907 282.194 76.5613 282.731 76.5386L282.309 66.5475L281.887 56.5564C277.309 56.7499 273.066 58.2682 269.4 60.9945L275.367 69.0189ZM282.309 66.5475L282.731 76.5386C283.576 76.5029 284.027 76.6671 284.652 77.2412L291.418 69.8778L298.184 62.5144C293.655 58.3525 288.033 56.2966 281.887 56.5564L282.309 66.5475ZM291.418 69.8778L284.652 77.2412C285.276 77.8152 285.478 78.2505 285.514 79.0953L295.505 78.673L305.496 78.2507C305.236 72.1044 302.713 66.6762 298.184 62.5144L291.418 69.8778ZM295.505 78.673L285.514 79.0953L288.011 138.179L298.002 137.756L307.993 137.334L305.496 78.2507L295.505 78.673ZM298.002 137.756L288.011 138.179C288.358 146.39 287.021 152.489 284.653 156.993L293.503 161.648L302.354 166.302C306.784 157.878 308.446 148.049 307.993 137.334L298.002 137.756ZM293.503 161.648L284.68 156.941C282.256 161.485 278.746 164.969 273.876 167.506L278.496 176.375L283.116 185.243C291.45 180.902 297.945 174.568 302.326 166.354L293.503 161.648ZM278.496 176.375L273.926 167.48C268.923 170.051 262.74 171.644 255.121 171.966L255.543 181.957L255.966 191.948C265.91 191.528 275.029 189.399 283.066 185.269L278.496 176.375ZM368.223 148.752L375.841 142.275V142.275L368.223 148.752ZM364.946 138.47L354.979 137.663L364.946 138.47ZM371.746 54.5211L361.778 53.7137L371.746 54.5211ZM387.203 41.2617L386.395 51.229L387.203 41.2617ZM396.941 46.2883L404.56 39.8112V39.8112L396.941 46.2883ZM400.197 56.8255L390.229 56.0182L400.197 56.8255ZM393.397 140.775L383.429 139.967L393.397 140.775ZM388.508 150.395L394.985 158.014V158.014L388.508 150.395ZM314.255 144.381L321.874 137.904V137.904L314.255 144.381ZM313.444 92.5623L315.879 82.8633L315.73 82.8258L315.579 82.7929L313.444 92.5623ZM306.11 87.9872L314.11 81.9878L314.103 81.9783L314.096 81.9687L306.11 87.9872ZM303.699 79.7015L293.731 78.8942L303.699 79.7015ZM307.432 71.6567L314.346 78.8821L314.354 78.8738L314.363 78.8655L307.432 71.6567ZM315.408 68.3217L315.942 78.3074L316.096 78.2992L316.25 78.2862L315.408 68.3217ZM316.245 67.4906L306.311 66.3461L306.292 66.5144L306.278 66.6833L316.245 67.4906ZM319.468 54.6529L310.348 50.5531L310.335 50.5803L310.323 50.6077L319.468 54.6529ZM326.164 44.9217L333.206 52.0214L333.256 51.9725L333.304 51.9229L326.164 44.9217ZM336.449 38.4349L333.562 28.8608L333.301 28.9396L333.044 29.0325L336.449 38.4349ZM350.052 36.9683L350.859 27.001L350.052 36.9683ZM363.093 40.8499L358.526 49.7461L358.751 49.8613L358.981 49.965L363.093 40.8499ZM368.324 46.0251L359.338 50.412L359.375 50.487L359.413 50.5614L368.324 46.0251ZM369.105 57.0039L378.467 60.5185L378.557 60.2773L378.635 60.0319L369.105 57.0039ZM364.981 61.9351L369.357 70.927L369.449 70.8819L369.541 70.835L364.981 61.9351ZM358.723 63.0977L357.915 73.065L358.723 63.0977ZM355.947 62.4876L359.348 53.0839L358.541 52.7918L357.696 52.6417L355.947 62.4876ZM353.288 62.0154L355.037 52.1695L354.569 52.0864L354.096 52.048L353.288 62.0154ZM347.478 63.9848L354.659 70.9443L354.731 70.8702L354.801 70.7946L347.478 63.9848ZM344.824 69.8054L334.986 68.0103L334.897 68.501L334.857 68.9981L344.824 69.8054ZM345.038 70.3364L352.657 63.8595L352.657 63.8593L345.038 70.3364ZM345.527 70.6329L344.72 80.6003L345.527 70.6329ZM350.503 71.036L351.31 61.0686L350.503 71.036ZM358.762 75.3006L351.143 81.7778L358.762 75.3006ZM343.012 95.3425L351.566 100.522L351.566 100.522L343.012 95.3425ZM342.705 95.9598L352.673 96.7671L342.705 95.9598ZM339.43 136.403L329.462 135.596L339.43 136.403ZM334.413 146.014L327.936 138.395V138.395L334.413 146.014ZM368.223 148.752L375.841 142.275C375.089 141.391 374.807 140.595 374.913 139.277L364.946 138.47L354.979 137.663C354.452 144.17 356.353 150.229 360.604 155.229L368.223 148.752ZM364.946 138.47L374.913 139.277L381.713 55.3284L371.746 54.5211L361.778 53.7137L354.979 137.663L364.946 138.47ZM371.746 54.5211L381.713 55.3284C381.844 53.7113 382.343 52.9352 383.132 52.264L376.655 44.6452L370.178 37.0263C365.083 41.3577 362.309 47.1656 361.778 53.7137L371.746 54.5211ZM376.655 44.6452L383.132 52.264C384.13 51.4161 385.02 51.1177 386.395 51.229L387.203 41.2617L388.01 31.2943C381.39 30.7581 375.249 32.7154 370.178 37.0263L376.655 44.6452ZM387.203 41.2617L386.395 51.229C387.621 51.3284 388.432 51.7189 389.322 52.7654L396.941 46.2883L404.56 39.8112C400.29 34.7894 394.609 31.8288 388.01 31.2943L387.203 41.2617ZM396.941 46.2883L389.322 52.7654C389.993 53.5549 390.36 54.4011 390.229 56.0182L400.197 56.8255L410.164 57.6329C410.694 51.0847 408.891 44.9061 404.56 39.8112L396.941 46.2883ZM400.197 56.8255L390.229 56.0182L383.429 139.967L393.397 140.775L403.364 141.582L410.164 57.6329L400.197 56.8255ZM393.397 140.775L383.429 139.967C383.323 141.285 382.916 142.024 382.031 142.776L388.508 150.395L394.985 158.014C399.985 153.764 402.837 148.089 403.364 141.582L393.397 140.775ZM388.508 150.395L382.031 142.776C380.984 143.666 380.122 143.921 378.895 143.822L378.088 153.789L377.281 163.757C383.88 164.291 389.963 162.283 394.985 158.014L388.508 150.395ZM378.088 153.789L378.895 143.822C377.52 143.71 376.689 143.273 375.841 142.275L368.223 148.752L360.604 155.229C364.915 160.3 370.661 163.22 377.281 163.757L378.088 153.789ZM324.121 149.418L324.928 139.451C323.553 139.339 322.722 138.901 321.874 137.904L314.255 144.381L306.636 150.858C310.947 155.929 316.694 158.849 323.314 159.385L324.121 149.418ZM314.255 144.381L321.874 137.904C320.941 136.807 320.731 135.972 320.818 134.896L310.851 134.089L300.884 133.281C300.351 139.86 302.41 145.887 306.636 150.858L314.255 144.381ZM310.851 134.089L320.818 134.896L324.094 94.4523L314.127 93.645L304.16 92.8376L300.884 133.281L310.851 134.089ZM314.127 93.645L324.094 94.4523C324.225 92.8398 324.1 90.2083 322.451 87.5932C320.68 84.7856 318.054 83.4092 315.879 82.8633L313.444 92.5623L311.009 102.261C309.338 101.842 307.077 100.709 305.534 98.2623C304.112 96.0081 304.077 93.8548 304.16 92.8376L314.127 93.645ZM313.444 92.5623L315.579 82.7929C314.619 82.5831 314.334 82.2867 314.11 81.9878L306.11 87.9872L298.109 93.9867C301.439 98.4275 306.044 101.181 311.309 102.332L313.444 92.5623ZM306.11 87.9872L314.096 81.9687C313.709 81.4553 313.616 81.1204 313.666 80.5089L303.699 79.7015L293.731 78.8942C293.285 84.4067 294.8 89.5956 298.124 94.0058L306.11 87.9872ZM303.699 79.7015L313.666 80.5089C313.741 79.5795 313.986 79.2264 314.346 78.8821L307.432 71.6567L300.519 64.4314C296.424 68.3493 294.18 73.3595 293.731 78.8942L303.699 79.7015ZM307.432 71.6567L314.363 78.8655C314.632 78.6066 314.961 78.36 315.942 78.3074L315.408 68.3217L314.873 58.336C309.491 58.6242 304.503 60.6009 300.502 64.4479L307.432 71.6567ZM315.408 68.3217L316.25 78.2862C318.092 78.1305 320.772 77.4374 323.047 75.1808C325.338 72.9082 326.059 70.2015 326.213 68.298L316.245 67.4906L306.278 66.6833C306.391 65.2901 306.951 62.9771 308.963 60.9815C310.958 59.002 313.24 58.4692 314.565 58.3572L315.408 68.3217ZM316.245 67.4906L326.18 68.6352C326.673 64.3522 327.549 61.1043 328.614 58.6982L319.468 54.6529L310.323 50.6077C308.243 55.3096 306.971 60.6202 306.311 66.3461L316.245 67.4906ZM319.468 54.6529L328.589 58.7528C329.776 56.1135 331.316 53.8965 333.206 52.0214L326.164 44.9217L319.122 37.8221C315.426 41.4874 312.503 45.7579 310.348 50.5531L319.468 54.6529ZM326.164 44.9217L333.304 51.9229C334.973 50.2208 337.093 48.8373 339.854 47.8374L336.449 38.4349L333.044 29.0325C327.691 30.971 322.954 33.9121 319.024 37.9206L326.164 44.9217ZM336.449 38.4349L339.337 48.009C342.634 47.0147 345.915 46.666 349.245 46.9357L350.052 36.9683L350.859 27.001C345.003 26.5266 339.216 27.1557 333.562 28.8608L336.449 38.4349ZM350.052 36.9683L349.245 46.9357C352.117 47.1683 355.194 48.0357 358.526 49.7461L363.093 40.8499L367.66 31.9536C362.279 29.1914 356.663 27.4711 350.859 27.001L350.052 36.9683ZM363.093 40.8499L358.981 49.965C359.044 49.9937 359.075 50.0137 359.084 50.0199C359.092 50.0258 359.097 50.0294 359.103 50.0353C359.105 50.0374 359.199 50.1267 359.338 50.412L368.324 46.0251L377.311 41.6383C375.174 37.2613 371.769 33.7937 367.206 31.7347L363.093 40.8499ZM368.324 46.0251L359.413 50.5614C359.687 51.1005 359.879 51.7932 359.789 52.9105L369.756 53.7178L379.723 54.5252C380.088 50.0288 379.325 45.5931 377.236 41.4888L368.324 46.0251ZM369.756 53.7178L359.789 52.9105C359.762 53.2422 359.696 53.5932 359.574 53.976L369.105 57.0039L378.635 60.0319C379.203 58.2446 379.571 56.4048 379.723 54.5252L369.756 53.7178ZM369.105 57.0039L359.743 53.4894C359.64 53.7628 359.607 53.7352 359.747 53.5666C359.817 53.4836 359.914 53.3839 360.04 53.283C360.166 53.1819 360.297 53.0988 360.421 53.0353L364.981 61.9351L369.541 70.835C374.019 68.5404 376.885 64.7324 378.467 60.5185L369.105 57.0039ZM364.981 61.9351L360.605 52.9433C360.283 53.1001 359.99 53.1676 359.53 53.1303L358.723 63.0977L357.915 73.065C361.878 73.386 365.757 72.6785 369.357 70.927L364.981 61.9351ZM358.723 63.0977L359.53 53.1303C359.512 53.1289 359.458 53.1236 359.348 53.0839L355.947 62.4876L352.546 71.8913C354.266 72.5135 356.062 72.9149 357.915 73.065L358.723 63.0977ZM355.947 62.4876L357.696 52.6417L355.037 52.1695L353.288 62.0154L351.54 71.8613L354.198 72.3335L355.947 62.4876ZM353.288 62.0154L354.096 52.048C349.252 51.6557 344.067 52.9692 340.156 57.1749L347.478 63.9848L354.801 70.7946C354.388 71.2396 353.815 71.6189 353.196 71.8286C352.632 72.0199 352.327 71.9703 352.481 71.9827L353.288 62.0154ZM347.478 63.9848L340.298 57.0252C337.191 60.2311 335.676 64.2306 334.986 68.0103L344.824 69.8054L354.661 71.6006C354.773 70.9864 354.894 70.6848 354.932 70.6015C354.964 70.5324 354.9 70.6962 354.659 70.9443L347.478 63.9848ZM344.824 69.8054L334.857 68.9981C334.553 72.7441 336.264 75.4553 337.419 76.8136L345.038 70.3364L352.657 63.8593C353.499 64.8499 355.067 67.2071 354.791 70.6128L344.824 69.8054ZM345.038 70.3364L337.419 76.8134C338.573 78.1718 340.974 80.2969 344.72 80.6003L345.527 70.6329L346.335 60.6656C349.741 60.9415 351.815 62.8689 352.657 63.8595L345.038 70.3364ZM345.527 70.6329L344.72 80.6003L349.696 81.0033L350.503 71.036L351.31 61.0686L346.335 60.6656L345.527 70.6329ZM350.503 71.036L349.696 81.0033C350.324 81.0542 350.642 81.1892 351.143 81.7778L358.762 75.3006L366.381 68.8235C362.504 64.2632 357.316 61.5551 351.31 61.0686L350.503 71.036ZM358.762 75.3006L351.143 81.7778C351.547 82.253 351.73 82.6375 351.654 83.5858L361.621 84.3932L371.588 85.2005C372.076 79.1743 370.354 73.4972 366.381 68.8235L358.762 75.3006ZM361.621 84.3932L351.654 83.5858C351.603 84.2143 351.468 84.5326 350.879 85.033L357.356 92.6518L363.833 100.271C368.394 96.3938 371.102 91.2063 371.588 85.2005L361.621 84.3932ZM357.356 92.6518L350.879 85.033C350.291 85.5333 349.955 85.6153 349.326 85.5644L348.519 95.5317L347.712 105.499C353.717 105.986 359.273 104.148 363.833 100.271L357.356 92.6518ZM348.519 95.5317L349.326 85.5644L344.351 85.1614L343.543 95.1287L342.736 105.096L347.712 105.499L348.519 95.5317ZM343.543 95.1287L344.351 85.1614C341.825 84.9568 337.195 85.6432 334.458 90.163L343.012 95.3425L351.566 100.522C350.495 102.291 348.873 103.67 346.955 104.443C345.197 105.15 343.651 105.17 342.736 105.096L343.543 95.1287ZM343.012 95.3425L334.458 90.1629C334.296 90.4306 334.061 90.8311 333.833 91.2903C333.72 91.5172 333.542 91.8918 333.366 92.3588C333.247 92.6776 332.853 93.7383 332.738 95.1525L342.705 95.9598L352.673 96.7671C352.61 97.5374 352.47 98.1437 352.375 98.4996C352.273 98.8803 352.167 99.185 352.091 99.3879C351.942 99.7822 351.804 100.069 351.742 100.193C351.616 100.447 351.531 100.581 351.566 100.522L343.012 95.3425ZM342.705 95.9598L332.738 95.1525L329.462 135.596L339.43 136.403L349.397 137.211L352.673 96.7671L342.705 95.9598ZM339.43 136.403L329.462 135.596C329.375 136.672 329.033 137.462 327.936 138.395L334.413 146.014L340.89 153.633C345.862 149.406 348.864 143.789 349.397 137.211L339.43 136.403ZM334.413 146.014L327.936 138.395C326.839 139.328 326.005 139.538 324.928 139.451L324.121 149.418L323.314 159.385C329.892 159.918 335.919 157.859 340.89 153.633L334.413 146.014ZM420.588 65.3681L428.539 59.3031V59.3031L420.588 65.3681ZM424.383 44.3317L429.713 52.7928L429.724 52.7859L424.383 44.3317ZM436.218 42.1747L434.443 52.0159L436.218 42.1747ZM446.427 48.3088L438.469 54.3635V54.3635L446.427 48.3088ZM442.758 69.3679L448.088 77.829V77.829L442.758 69.3679ZM405.846 152.845L414.061 147.141V147.141L405.846 152.845ZM418.641 81.9255L424.345 90.1397V90.1397L418.641 81.9255ZM438.796 85.5617L430.582 91.265V91.265L438.796 85.5617ZM441.031 96.2403L431.19 94.4648L441.031 96.2403ZM426.001 156.481L420.298 148.267V148.267L426.001 156.481ZM430.946 71.3989L432.721 61.5578C430.416 61.142 429.297 60.2967 428.539 59.3031L420.588 65.3681L412.637 71.4331C416.788 76.8746 422.573 80.0499 429.17 81.24L430.946 71.3989ZM420.588 65.3681L428.539 59.3031C427.926 58.4999 427.59 57.6466 427.906 55.893L418.065 54.1175L408.224 52.342C406.995 59.1541 408.341 65.8012 412.637 71.4331L420.588 65.3681ZM418.065 54.1175L427.906 55.893C428.25 53.9916 428.909 53.2995 429.713 52.7928L424.383 44.3317L419.053 35.8707C413.009 39.678 409.457 45.5097 408.224 52.342L418.065 54.1175ZM424.383 44.3317L429.724 52.7859C430.987 51.9881 432.364 51.6407 434.443 52.0159L436.218 42.1747L437.994 32.3336C431.339 31.133 424.826 32.2237 419.042 35.8776L424.383 44.3317ZM436.218 42.1747L434.443 52.0159C436.383 52.366 437.532 53.1329 438.469 54.3635L446.427 48.3088L454.386 42.2541C450.276 36.8513 444.619 33.5289 437.994 32.3336L436.218 42.1747ZM446.427 48.3088L438.469 54.3635C439.212 55.34 439.512 56.2702 439.212 57.9326L449.053 59.7081L458.894 61.4836C460.14 54.5803 458.69 47.911 454.386 42.2541L446.427 48.3088ZM449.053 59.7081L439.212 57.9326C438.896 59.6863 438.283 60.3684 437.428 60.9068L442.758 69.3679L448.088 77.829C454.082 74.0534 457.665 68.2957 458.894 61.4836L449.053 59.7081ZM442.758 69.3679L437.428 60.9068C436.371 61.5729 435.026 61.9736 432.721 61.5578L430.946 71.3989L429.17 81.24C435.767 82.4302 442.297 81.4769 448.088 77.829L442.758 69.3679ZM405.846 152.845L414.061 147.141C413.47 146.29 413.187 145.412 413.475 143.816L403.634 142.04L393.793 140.265C392.626 146.73 393.818 153.055 397.632 158.548L405.846 152.845ZM403.634 142.04L413.475 143.816L422.656 92.9251L412.815 91.1497L402.974 89.3742L393.793 140.265L403.634 142.04ZM412.815 91.1497L422.656 92.9251C422.918 91.4759 423.443 90.7657 424.345 90.1397L418.641 81.9255L412.938 73.7114C407.495 77.4903 404.137 82.9295 402.974 89.3742L412.815 91.1497ZM418.641 81.9255L424.345 90.1397C425.42 89.3931 426.335 89.1829 427.693 89.4279L429.469 79.5867L431.244 69.7456C424.708 68.5664 418.405 69.9155 412.938 73.7114L418.641 81.9255ZM429.469 79.5867L427.693 89.4279C429.051 89.6728 429.835 90.1896 430.582 91.265L438.796 85.5617L447.01 79.8585C443.214 74.3914 437.78 70.9248 431.244 69.7456L429.469 79.5867ZM438.796 85.5617L430.582 91.265C431.208 92.1666 431.452 93.0156 431.19 94.4648L441.031 96.2403L450.873 98.0158C452.035 91.5711 450.789 85.3011 447.01 79.8584L438.796 85.5617ZM441.031 96.2403L431.19 94.4648L422.009 145.355L431.85 147.131L441.691 148.906L450.873 98.0158L441.031 96.2403ZM431.85 147.131L422.009 145.355C421.721 146.952 421.149 147.676 420.298 148.267L426.001 156.481L431.704 164.695C437.197 160.881 440.525 155.371 441.691 148.906L431.85 147.131ZM426.001 156.481L420.298 148.267C419.222 149.013 418.307 149.223 416.949 148.978L415.174 158.82L413.398 168.661C419.935 169.84 426.237 168.491 431.704 164.695L426.001 156.481ZM415.174 158.82L416.949 148.978C415.592 148.734 414.807 148.217 414.061 147.141L405.846 152.845L397.632 158.548C401.428 164.015 406.862 167.481 413.398 168.661L415.174 158.82ZM470.915 149.586L465.962 140.898L465.078 141.403L464.313 142.075L470.915 149.586ZM456.409 162.336L462.682 170.124L462.85 169.989L463.011 169.847L456.409 162.336ZM451.04 164.98L453.588 174.65L453.631 174.639L453.674 174.627L451.04 164.98ZM438.898 160.859L431.203 167.247L431.304 167.369L431.409 167.487L438.898 160.859ZM440.633 142.888L446.88 150.696L446.968 150.626L447.055 150.553L440.633 142.888ZM460.093 126.584L466.515 134.249L466.767 134.038L467.005 133.81L460.093 126.584ZM460.431 125.349L470.06 122.651L469.973 122.34L469.866 122.036L460.431 125.349ZM452.079 101.564L442.561 104.632L442.601 104.755L442.644 104.876L452.079 101.564ZM455.033 88.8357L462.256 95.7513L462.304 95.7011L462.351 95.6502L455.033 88.8357ZM460.413 85.6639L457.881 75.9899L457.767 76.0197L457.654 76.0521L460.413 85.6639ZM467.587 85.6372L464.946 95.2823L467.587 85.6372ZM473.567 88.9997L466.523 96.0971L466.595 96.1693L466.67 96.24L473.567 88.9997ZM477.076 94.6051L467.391 97.0977L467.454 97.3419L467.529 97.5826L477.076 94.6051ZM482.235 111.147L472.688 114.124L473.011 115.158L473.548 116.1L482.235 111.147ZM482.661 111.529L480.021 121.174L482.661 111.529ZM483.099 111.383L488.052 120.07L488.938 119.565L489.704 118.891L483.099 111.383ZM496.56 99.5412L503.165 107.049L503.269 106.958L503.371 106.863L496.56 99.5412ZM502.12 96.6839L499.999 86.9113L499.999 86.9113L502.12 96.6839ZM508.328 96.791L510.968 87.146L508.328 96.791ZM514.364 100.434L506.883 107.071L506.962 107.159L507.042 107.245L514.364 100.434ZM517.255 105.871L507.523 108.171L507.546 108.267L507.571 108.363L517.255 105.871ZM517.182 111.955L526.827 114.596L517.182 111.955ZM513.415 117.958L519.818 125.639L519.825 125.633L513.415 117.958ZM493.641 134.441L487.238 126.76L486.975 126.978L486.729 127.214L493.641 134.441ZM493.303 135.676L483.673 138.374L483.757 138.672L483.859 138.964L493.303 135.676ZM501.475 159.147L492.031 162.435L492.109 162.66L492.198 162.88L501.475 159.147ZM501.894 166.826L511.539 169.467L501.894 166.826ZM498.824 172.223L491.621 165.286L491.557 165.353L491.494 165.42L498.824 172.223ZM493.466 175.799L496.806 185.224L496.865 185.204L496.923 185.182L493.466 175.799ZM486.135 175.915L483.494 185.56L486.135 175.915ZM480.614 172.811L473.678 180.014V180.014L480.614 172.811ZM477.162 167.487L467.613 170.457L467.69 170.703L467.778 170.944L477.162 167.487ZM471.656 149.789L481.204 146.818L480.881 145.78L480.343 144.836L471.656 149.789ZM471.353 149.44L473.993 139.795L471.353 149.44ZM470.915 149.586L464.313 142.075L449.807 154.825L456.409 162.336L463.011 169.847L477.517 157.097L470.915 149.586ZM456.409 162.336L450.136 154.548C449.883 154.752 449.382 155.067 448.407 155.333L451.04 164.98L453.674 174.627C456.907 173.745 459.985 172.297 462.682 170.124L456.409 162.336ZM451.04 164.98L448.493 155.31C448.557 155.293 448.564 155.304 448.475 155.301C448.377 155.298 448.145 155.279 447.754 155.172L445.113 164.817L442.473 174.462C445.995 175.427 449.785 175.652 453.588 174.65L451.04 164.98ZM445.113 164.817L447.754 155.172C447.377 155.069 446.951 154.87 446.386 154.232L438.898 160.859L431.409 167.487C434.358 170.819 438.076 173.259 442.473 174.462L445.113 164.817ZM438.898 160.859L446.592 154.472C446.224 154.029 446.169 153.79 446.151 153.696C446.127 153.577 446.066 153.158 446.308 152.272L436.663 149.631L427.018 146.99C425.051 154.176 426.303 161.344 431.203 167.247L438.898 160.859ZM436.663 149.631L446.308 152.272C446.781 150.543 447.219 150.425 446.88 150.696L440.633 142.888L434.386 135.079C430.421 138.251 428.213 142.628 427.018 146.99L436.663 149.631ZM440.633 142.888L447.055 150.553L466.515 134.249L460.093 126.584L453.671 118.918L434.211 135.223L440.633 142.888ZM460.093 126.584L467.005 133.81C468.274 132.596 469.482 130.884 470.092 128.658C470.701 126.431 470.534 124.342 470.06 122.651L460.431 125.349L450.802 128.047C450.462 126.835 450.305 125.191 450.802 123.376C451.299 121.561 452.271 120.227 453.181 119.357L460.093 126.584ZM460.431 125.349L469.866 122.036L461.514 98.2506L452.079 101.564L442.644 104.876L450.995 128.662L460.431 125.349ZM452.079 101.564L461.597 98.4953C461.335 97.6846 461.381 97.2163 461.484 96.8394L451.839 94.1988L442.194 91.5582C440.99 95.9549 441.196 100.397 442.561 104.632L452.079 101.564ZM451.839 94.1988L461.484 96.8394C461.488 96.8254 461.581 96.4564 462.256 95.7513L455.033 88.8357L447.81 81.9201C445.263 84.5798 443.227 87.7862 442.194 91.5582L451.839 94.1988ZM455.033 88.8357L462.351 95.6502C462.365 95.6351 462.398 95.6009 462.49 95.5469C462.588 95.489 462.797 95.3834 463.173 95.2757L460.413 85.6639L457.654 76.0521C453.942 77.1178 450.491 79.0386 447.714 82.0212L455.033 88.8357ZM460.413 85.6639L462.946 95.3379C463.853 95.1004 464.456 95.1479 464.946 95.2823L467.587 85.6372L470.227 75.9922C466.109 74.8647 461.929 74.93 457.881 75.9899L460.413 85.6639ZM467.587 85.6372L464.946 95.2823C465.837 95.526 466.263 95.8398 466.523 96.0971L473.567 88.9997L480.612 81.9024C477.671 78.9833 474.111 77.0553 470.227 75.9922L467.587 85.6372ZM473.567 88.9997L466.67 96.24C467.061 96.6132 467.253 96.8769 467.336 97.0101C467.413 97.1335 467.407 97.1578 467.391 97.0977L477.076 94.6051L486.76 92.1125C485.686 87.9382 483.344 84.5024 480.465 81.7594L473.567 88.9997ZM477.076 94.6051L467.529 97.5826L472.688 114.124L482.235 111.147L491.781 108.169L486.622 91.6276L477.076 94.6051ZM482.235 111.147L473.548 116.1C474.431 117.648 476.396 120.181 480.021 121.174L482.661 111.529L485.302 101.884C488.597 102.786 490.278 105.064 490.922 106.194L482.235 111.147ZM482.661 111.529L480.021 121.174C482.961 121.979 485.344 121.212 485.985 120.999C486.931 120.685 487.659 120.295 488.052 120.07L483.099 111.383L478.146 102.696C478.33 102.591 478.88 102.285 479.679 102.019C480.094 101.882 480.759 101.693 481.604 101.596C482.428 101.503 483.751 101.459 485.302 101.884L482.661 111.529ZM483.099 111.383L489.704 118.891L503.165 107.049L496.56 99.5412L489.955 92.0331L476.494 103.875L483.099 111.383ZM496.56 99.5412L503.371 106.863C503.531 106.714 503.74 106.565 504.24 106.457L502.12 96.6839L499.999 86.9113C496.173 87.7416 492.674 89.4978 489.749 92.2193L496.56 99.5412ZM502.12 96.6839L504.24 106.457C504.96 106.3 505.389 106.355 505.687 106.436L508.328 96.791L510.968 87.146C507.316 86.146 503.606 86.1287 499.999 86.9113L502.12 96.6839ZM508.328 96.791L505.687 106.436C506.465 106.649 506.734 106.903 506.883 107.071L514.364 100.434L521.844 93.7979C518.883 90.4602 515.128 88.2848 510.968 87.146L508.328 96.791ZM514.364 100.434L507.042 107.245C507.279 107.5 507.424 107.751 507.523 108.171L517.255 105.871L526.987 103.57C526.102 99.8281 524.32 96.455 521.686 93.6233L514.364 100.434ZM517.255 105.871L507.571 108.363C507.636 108.619 507.657 108.877 507.537 109.315L517.182 111.955L526.827 114.596C527.833 110.919 527.903 107.12 526.939 103.378L517.255 105.871ZM517.182 111.955L507.537 109.315C507.36 109.961 507.16 110.153 507.005 110.282L513.415 117.958L519.825 125.633C523.34 122.698 525.652 118.887 526.827 114.596L517.182 111.955ZM513.415 117.958L507.012 110.276L487.238 126.76L493.641 134.441L500.044 142.122L519.818 125.639L513.415 117.958ZM493.641 134.441L486.729 127.214C485.46 128.428 484.251 130.141 483.641 132.367C483.032 134.594 483.2 136.683 483.673 138.374L493.303 135.676L502.932 132.978C503.271 134.189 503.428 135.833 502.931 137.648C502.435 139.463 501.462 140.798 500.553 141.668L493.641 134.441ZM493.303 135.676L483.859 138.964L492.031 162.435L501.475 159.147L510.919 155.858L502.746 132.387L493.303 135.676ZM501.475 159.147L492.198 162.88C492.366 163.297 492.405 163.616 492.249 164.185L501.894 166.826L511.539 169.467C512.825 164.768 512.585 159.968 510.752 155.413L501.475 159.147ZM501.894 166.826L492.249 164.185C492.129 164.625 491.947 164.948 491.621 165.286L498.824 172.223L506.027 179.16C508.668 176.417 510.533 173.142 511.539 169.467L501.894 166.826ZM498.824 172.223L491.494 165.42C491.052 165.896 490.591 166.201 490.008 166.415L493.466 175.799L496.923 185.182C500.473 183.874 503.584 181.795 506.154 179.025L498.824 172.223ZM493.466 175.799L490.125 166.373C490.061 166.396 489.729 166.531 488.775 166.27L486.135 175.915L483.494 185.56C487.807 186.741 492.363 186.799 496.806 185.224L493.466 175.799ZM486.135 175.915L488.775 166.27C488.186 166.109 487.84 165.887 487.551 165.608L480.614 172.811L473.678 180.014C476.469 182.703 479.803 184.55 483.494 185.56L486.135 175.915ZM480.614 172.811L487.551 165.608C487.132 165.204 486.8 164.722 486.545 164.029L477.162 167.487L467.778 170.944C469.046 174.384 471.016 177.451 473.678 180.014L480.614 172.811ZM477.162 167.487L486.71 164.516L481.204 146.818L471.656 149.789L462.107 152.759L467.613 170.457L477.162 167.487ZM471.656 149.789L480.343 144.836C480.119 144.442 479.691 143.736 479.038 142.984C478.594 142.474 476.934 140.6 473.993 139.795L471.353 149.44L468.712 159.085C467.161 158.661 466.046 157.95 465.384 157.449C464.706 156.936 464.23 156.434 463.943 156.105C463.39 155.469 463.073 154.925 462.968 154.741L471.656 149.789ZM471.353 149.44L473.993 139.795C471.053 138.99 468.67 139.757 468.029 139.97C467.083 140.284 466.355 140.674 465.962 140.898L470.915 149.586L475.868 158.273C475.684 158.378 475.135 158.684 474.335 158.95C473.92 159.087 473.255 159.276 472.41 159.373C471.586 159.466 470.263 159.51 468.712 159.085L471.353 149.44Z" fill="black" mask="url(#path-1-outside-1_450_2)"/>
</g>
<defs>
<linearGradient id="paint0_linear_450_2" x1="289" y1="94" x2="289" y2="143.5" gradientUnits="userSpaceOnUse">
<stop stop-color="white"/>
<stop offset="1" stop-color="#E5B409"/>
</linearGradient>
<clipPath id="clip0_450_2">
<rect width="578" height="230" fill="white"/>
</clipPath>
</defs>
</svg>
